<svg width="44" height="44" viewBox="0 0 44 44" fill="none" xmlns="http://www.w3.org/2000/svg">
<path d="M0 14C0 6.26801 6.26801 0 14 0H30C37.732 0 44 6.26801 44 14V30C44 37.732 37.732 44 30 44H14C6.26801 44 0 37.732 0 30V14Z" fill="#E17100" fill-opacity="0.3"/>
<path d="M21.1667 30.1083C21.42 30.2546 21.7074 30.3316 22 30.3316C22.2926 30.3316 22.58 30.2546 22.8333 30.1083L28.6667 26.775C28.9198 26.6289 29.13 26.4187 29.2763 26.1657C29.4225 25.9126 29.4997 25.6256 29.5 25.3333V18.6667C29.4997 18.3744 29.4225 18.0873 29.2763 17.8343C29.13 17.5813 28.9198 17.3711 28.6667 17.225L22.8333 13.8917C22.58 13.7454 22.2926 13.6684 22 13.6684C21.7074 13.6684 21.42 13.7454 21.1667 13.8917L15.3333 17.225C15.0802 17.3711 14.87 17.5813 14.7237 17.8343C14.5775 18.0873 14.5003 18.3744 14.5 18.6667V25.3333C14.5003 25.6256 14.5775 25.9126 14.7237 26.1657C14.87 26.4187 15.0802 26.6289 15.3333 26.775L21.1667 30.1083Z" stroke="#FFD230" stroke-width="1.66667" stroke-linecap="round" stroke-linejoin="round"/>
<path d="M22 30.3333V22" stroke="#FFD230" stroke-width="1.66667" stroke-linecap="round" stroke-linejoin="round"/>
<path d="M14.7417 17.8333L22 22L29.2584 17.8333" stroke="#FFD230" stroke-width="1.66667" stroke-linecap="round" stroke-linejoin="round"/>
<path d="M18.25 15.5583L25.75 19.85" stroke="#FFD230" stroke-width="1.66667" stroke-linecap="round" stroke-linejoin="round"/>
</svg>
