<svg width="44" height="44" viewBox="0 0 44 44" fill="none" xmlns="http://www.w3.org/2000/svg">
<path d="M0 14C0 6.26801 6.26801 0 14 0H30C37.732 0 44 6.26801 44 14V30C44 37.732 37.732 44 30 44H14C6.26801 44 0 37.732 0 30V14Z" fill="#E17100" fill-opacity="0.3"/>
<path d="M18.6667 30.3333C19.1269 30.3333 19.5 29.9602 19.5 29.5C19.5 29.0398 19.1269 28.6667 18.6667 28.6667C18.2065 28.6667 17.8334 29.0398 17.8334 29.5C17.8334 29.9602 18.2065 30.3333 18.6667 30.3333Z" stroke="#FFD230" stroke-width="1.66667" stroke-linecap="round" stroke-linejoin="round"/>
<path d="M27.8333 30.3333C28.2936 30.3333 28.6667 29.9602 28.6667 29.5C28.6667 29.0398 28.2936 28.6667 27.8333 28.6667C27.3731 28.6667 27 29.0398 27 29.5C27 29.9602 27.3731 30.3333 27.8333 30.3333Z" stroke="#FFD230" stroke-width="1.66667" stroke-linecap="round" stroke-linejoin="round"/>
<path d="M13.7084 13.7083H15.375L17.5917 24.0583C17.673 24.4374 17.8839 24.7762 18.1881 25.0165C18.4923 25.2569 18.8708 25.3836 19.2584 25.375H27.4084C27.7877 25.3744 28.1554 25.2444 28.4509 25.0065C28.7463 24.7686 28.9518 24.4371 29.0334 24.0667L30.4084 17.875H16.2667" stroke="#FFD230" stroke-width="1.66667" stroke-linecap="round" stroke-linejoin="round"/>
</svg>
