<svg xmlns="http://www.w3.org/2000/svg" width="32" height="32" viewBox="0 0 32 32" aria-label="MarketFlow Icon">
  <g fill="#FFB900">
    <path fill-opacity="0.5" d="M17.5,24.9V18h-3v6.9c-2.1-0.3-3.8-1.9-4.3-4l-2.9,1C8.1,25.6,11.7,28,16,28v2h3v-2c4.3,0,7.9-2.4,8.7-6.1l-2.9-1 C24.3,23,22.6,24.6,20.5,24.9z M17.5,7.1C19.6,7.4,21.3,9,21.8,11.1l2.9-1C23.9,6.4,20.3,4,16,4V2h-3v2c-4.3,0-7.9,2.4-8.7,6.1 l2.9,1C8.1,9,9.8,7.4,11.9,7.1V14h3V7.1z"/>
    
    <path d="M4,28h6V14.5L16,23l6-8.5V20h-3l5,6l5-6h-3V6h-6L16,14L10,6H4V28z"/>
  </g>
</svg>