<svg width="24" height="24" viewBox="0 0 24 24" fill="none" xmlns="http://www.w3.org/2000/svg">
<mask id="path-1-inside-1_1_109" fill="white">
<path d="M0 11.995C0 5.37033 5.37033 0 11.995 0C18.6196 0 23.99 5.37033 23.99 11.995C23.99 18.6196 18.6196 23.99 11.995 23.99C5.37033 23.99 0 18.6196 0 11.995Z"/>
</mask>
<path d="M0 11.995C0 5.37033 5.37033 0 11.995 0C18.6196 0 23.99 5.37033 23.99 11.995C23.99 18.6196 18.6196 23.99 11.995 23.99C5.37033 23.99 0 18.6196 0 11.995Z" fill="#E17100" fill-opacity="0.8"/>
<path d="M11.995 23.99V22.7905C6.0328 22.7905 1.1995 17.9572 1.1995 11.995H0H-1.1995C-1.1995 19.2821 4.70787 25.1895 11.995 25.1895V23.99ZM23.99 11.995H22.7905C22.7905 17.9572 17.9572 22.7905 11.995 22.7905V23.99V25.1895C19.2821 25.1895 25.1895 19.2821 25.1895 11.995H23.99ZM11.995 0V1.1995C17.9572 1.1995 22.7905 6.0328 22.7905 11.995H23.99H25.1895C25.1895 4.70787 19.2821 -1.1995 11.995 -1.1995V0ZM11.995 0V-1.1995C4.70787 -1.1995 -1.1995 4.70787 -1.1995 11.995H0H1.1995C1.1995 6.0328 6.0328 1.1995 11.995 1.1995V0Z" fill="#FE9A00" fill-opacity="0.8" mask="url(#path-1-inside-1_1_109)"/>
<path d="M16.6555 8.49957L10.2473 14.9078L7.33443 11.995" stroke="white" stroke-width="1.16514" stroke-linecap="round" stroke-linejoin="round"/>
</svg>
